<?xml version="1.0" encoding="UTF-8"?>
<!--Generator: Apple Native CoreSVG 175.5-->
<!DOCTYPE svg
PUBLIC "-//W3C//DTD SVG 1.1//EN"
       "http://www.w3.org/Graphics/SVG/1.1/DTD/svg11.dtd">
<svg version="1.1" xmlns="http://www.w3.org/2000/svg" xmlns:xlink="http://www.w3.org/1999/xlink" width="3300" height="2200">
 <!--glyph: "", point size: 100.0, font version: "18.0d12e2", template writer version: "101"-->
 <style>.monochrome-0 {fill:#000000}

.SFSymbolsPreview000000 {fill:#000000;opacity:1.0}
</style>
 <g id="Notes">
  <rect height="2200" id="artboard" style="fill:white;opacity:1" width="3300" x="0" y="0"/>
  <line style="fill:none;stroke:black;opacity:1;stroke-width:0.5;" x1="263" x2="3036" y1="292" y2="292"/>
  <text style="stroke:none;fill:black;font-family:sans-serif;font-size:13;font-weight:bold;" transform="matrix(1 0 0 1 263 322)">Weight/Scale Variations</text>
  <text style="stroke:none;fill:black;font-family:sans-serif;font-size:13;text-anchor:middle;" transform="matrix(1 0 0 1 559.711 322)">Ultralight</text>
  <text style="stroke:none;fill:black;font-family:sans-serif;font-size:13;text-anchor:middle;" transform="matrix(1 0 0 1 856.422 322)">Thin</text>
  <text style="stroke:none;fill:black;font-family:sans-serif;font-size:13;text-anchor:middle;" transform="matrix(1 0 0 1 1153.13 322)">Light</text>
  <text style="stroke:none;fill:black;font-family:sans-serif;font-size:13;text-anchor:middle;" transform="matrix(1 0 0 1 1449.84 322)">Regular</text>
  <text style="stroke:none;fill:black;font-family:sans-serif;font-size:13;text-anchor:middle;" transform="matrix(1 0 0 1 1746.56 322)">Medium</text>
  <text style="stroke:none;fill:black;font-family:sans-serif;font-size:13;text-anchor:middle;" transform="matrix(1 0 0 1 2043.27 322)">Semibold</text>
  <text style="stroke:none;fill:black;font-family:sans-serif;font-size:13;text-anchor:middle;" transform="matrix(1 0 0 1 2339.98 322)">Bold</text>
  <text style="stroke:none;fill:black;font-family:sans-serif;font-size:13;text-anchor:middle;" transform="matrix(1 0 0 1 2636.69 322)">Heavy</text>
  <text style="stroke:none;fill:black;font-family:sans-serif;font-size:13;text-anchor:middle;" transform="matrix(1 0 0 1 2933.4 322)">Black</text>
  <line style="fill:none;stroke:black;opacity:1;stroke-width:0.5;" x1="263" x2="3036" y1="1903" y2="1903"/>
  <g transform="matrix(1 0 0 1 263 1933)">
   <path d="M9.24805 0.830078C13.5547 0.830078 17.1387-2.74414 17.1387-7.05078C17.1387-11.3574 13.5449-14.9316 9.23828-14.9316C4.94141-14.9316 1.36719-11.3574 1.36719-7.05078C1.36719-2.74414 4.95117 0.830078 9.24805 0.830078ZM9.24805-0.654297C5.70312-0.654297 2.87109-3.49609 2.87109-7.05078C2.87109-10.6055 5.69336-13.4473 9.23828-13.4473C12.793-13.4473 15.6445-10.6055 15.6445-7.05078C15.6445-3.49609 12.8027-0.654297 9.24805-0.654297ZM5.6543-7.05078C5.6543-6.62109 5.95703-6.32812 6.40625-6.32812L8.50586-6.32812L8.50586-4.20898C8.50586-3.76953 8.79883-3.4668 9.22852-3.4668C9.67773-3.4668 9.9707-3.76953 9.9707-4.20898L9.9707-6.32812L12.0898-6.32812C12.5293-6.32812 12.832-6.62109 12.832-7.05078C12.832-7.49023 12.5293-7.79297 12.0898-7.79297L9.9707-7.79297L9.9707-9.90234C9.9707-10.3516 9.67773-10.6543 9.22852-10.6543C8.79883-10.6543 8.50586-10.3516 8.50586-9.90234L8.50586-7.79297L6.40625-7.79297C5.95703-7.79297 5.6543-7.49023 5.6543-7.05078Z"/>
  </g>
  <g transform="matrix(1 0 0 1 281.867 1933)">
   <path d="M11.709 2.91016C17.1582 2.91016 21.6699-1.61133 21.6699-7.05078C21.6699-12.5 17.1484-17.0117 11.6992-17.0117C6.25977-17.0117 1.74805-12.5 1.74805-7.05078C1.74805-1.61133 6.26953 2.91016 11.709 2.91016ZM11.709 1.25C7.09961 1.25 3.41797-2.44141 3.41797-7.05078C3.41797-11.6602 7.08984-15.3516 11.6992-15.3516C16.3086-15.3516 20.0098-11.6602 20.0098-7.05078C20.0098-2.44141 16.3184 1.25 11.709 1.25ZM7.17773-7.05078C7.17773-6.57227 7.50977-6.25 8.00781-6.25L10.8789-6.25L10.8789-3.36914C10.8789-2.88086 11.2109-2.53906 11.6895-2.53906C12.1777-2.53906 12.5195-2.87109 12.5195-3.36914L12.5195-6.25L15.4004-6.25C15.8887-6.25 16.2305-6.57227 16.2305-7.05078C16.2305-7.53906 15.8887-7.88086 15.4004-7.88086L12.5195-7.88086L12.5195-10.752C12.5195-11.25 12.1777-11.5918 11.6895-11.5918C11.2109-11.5918 10.8789-11.25 10.8789-10.752L10.8789-7.88086L8.00781-7.88086C7.50977-7.88086 7.17773-7.53906 7.17773-7.05078Z"/>
  </g>
  <g transform="matrix(1 0 0 1 305.646 1933)">
   <path d="M14.9707 5.66406C21.9336 5.66406 27.6953-0.0976562 27.6953-7.05078C27.6953-14.0137 21.9238-19.7754 14.9609-19.7754C8.00781-19.7754 2.25586-14.0137 2.25586-7.05078C2.25586-0.0976562 8.01758 5.66406 14.9707 5.66406ZM14.9707 3.84766C8.93555 3.84766 4.08203-1.01562 4.08203-7.05078C4.08203-13.0957 8.92578-17.9492 14.9609-17.9492C21.0059-17.9492 25.8691-13.0957 25.8691-7.05078C25.8691-1.01562 21.0156 3.84766 14.9707 3.84766ZM9.19922-7.05078C9.19922-6.5332 9.57031-6.17188 10.1172-6.17188L14.0625-6.17188L14.0625-2.2168C14.0625-1.67969 14.4336-1.29883 14.9512-1.29883C15.4883-1.29883 15.8594-1.66992 15.8594-2.2168L15.8594-6.17188L19.8145-6.17188C20.3516-6.17188 20.7324-6.5332 20.7324-7.05078C20.7324-7.59766 20.3613-7.96875 19.8145-7.96875L15.8594-7.96875L15.8594-11.9141C15.8594-12.4609 15.4883-12.8418 14.9512-12.8418C14.4336-12.8418 14.0625-12.4609 14.0625-11.9141L14.0625-7.96875L10.1172-7.96875C9.57031-7.96875 9.19922-7.59766 9.19922-7.05078Z"/>
  </g>
  <text style="stroke:none;fill:black;font-family:sans-serif;font-size:13;font-weight:bold;" transform="matrix(1 0 0 1 263 1953)">Design Variations</text>
  <text style="stroke:none;fill:black;font-family:sans-serif;font-size:13;" transform="matrix(1 0 0 1 263 1971)">Symbols are supported in up to nine weights and three scales.</text>
  <text style="stroke:none;fill:black;font-family:sans-serif;font-size:13;" transform="matrix(1 0 0 1 263 1989)">For optimal layout with text and other symbols, vertically align</text>
  <text style="stroke:none;fill:black;font-family:sans-serif;font-size:13;" transform="matrix(1 0 0 1 263 2007)">symbols with the adjacent text.</text>
  <line style="fill:none;stroke:#00AEEF;stroke-width:0.5;opacity:1.0;" x1="776" x2="776" y1="1919" y2="1933"/>
  <g transform="matrix(1 0 0 1 776 1933)">
   <path d="M3.31055 0.15625C3.82812 0.15625 4.08203-0.0390625 4.26758-0.585938L5.52734-4.0332L11.2891-4.0332L12.5488-0.585938C12.7344-0.0390625 12.9883 0.15625 13.4961 0.15625C14.0137 0.15625 14.3457-0.15625 14.3457-0.644531C14.3457-0.810547 14.3164-0.966797 14.2383-1.17188L9.6582-13.3691C9.43359-13.9648 9.0332-14.2676 8.4082-14.2676C7.80273-14.2676 7.39258-13.9746 7.17773-13.3789L2.59766-1.16211C2.51953-0.957031 2.49023-0.800781 2.49023-0.634766C2.49023-0.146484 2.80273 0.15625 3.31055 0.15625ZM6.00586-5.51758L8.37891-12.0898L8.42773-12.0898L10.8008-5.51758Z"/>
  </g>
  <line style="fill:none;stroke:#00AEEF;stroke-width:0.5;opacity:1.0;" x1="793.197" x2="793.197" y1="1919" y2="1933"/>
  <text style="stroke:none;fill:black;font-family:sans-serif;font-size:13;font-weight:bold;" transform="matrix(1 0 0 1 776 1953)">Margins</text>
  <text style="stroke:none;fill:black;font-family:sans-serif;font-size:13;" transform="matrix(1 0 0 1 776 1971)">Leading and trailing margins on the left and right side of each symbol</text>
  <text style="stroke:none;fill:black;font-family:sans-serif;font-size:13;" transform="matrix(1 0 0 1 776 1989)">can be adjusted by modifying the x-location of the margin guidelines.</text>
  <text style="stroke:none;fill:black;font-family:sans-serif;font-size:13;" transform="matrix(1 0 0 1 776 2007)">Modifications are automatically applied proportionally to all</text>
  <text style="stroke:none;fill:black;font-family:sans-serif;font-size:13;" transform="matrix(1 0 0 1 776 2025)">scales and weights.</text>
  <g transform="matrix(1 0 0 1 1289 1933)">
   <path d="M2.8418 1.86523L4.54102 3.57422C5.40039 4.44336 6.38672 4.38477 7.31445 3.35938L18.0078-8.42773L17.041-9.4043L6.42578 2.27539C6.07422 2.67578 5.74219 2.77344 5.27344 2.30469L4.10156 1.14258C3.63281 0.683594 3.74023 0.341797 4.14062-0.0195312L15.6152-10.8203L14.6387-11.7871L3.04688-0.898438C2.06055 0.0195312 1.98242 0.996094 2.8418 1.86523ZM9.25781-16.3281C8.83789-15.918 8.80859-15.3418 9.04297-14.9512C9.27734-14.5898 9.73633-14.3555 10.3809-14.5215C11.8457-14.8633 13.3691-14.9219 14.7949-13.9844L14.209-12.5293C13.8672-11.6992 14.043-11.1133 14.5801-10.5664L16.875-8.25195C17.3633-7.76367 17.7734-7.74414 18.3398-7.8418L19.4043-8.03711L20.0684-7.36328L20.0293-6.80664C19.9902-6.30859 20.1172-5.92773 20.6055-5.44922L21.3672-4.70703C21.8457-4.22852 22.4609-4.19922 22.9297-4.66797L25.8398-7.58789C26.3086-8.05664 26.2891-8.65234 25.8105-9.13086L25.0391-9.89258C24.5605-10.3711 24.1895-10.5273 23.7109-10.4883L23.1348-10.4395L22.4902-11.0742L22.7344-12.1973C22.8613-12.7637 22.7051-13.2031 22.1191-13.7891L19.9219-15.9766C16.582-19.2969 12.1484-19.2188 9.25781-16.3281ZM10.752-15.957C13.1836-17.7344 16.4746-17.4316 18.7012-15.2051L21.1328-12.793C21.3672-12.5586 21.4062-12.373 21.3379-12.0312L21.0156-10.5469L22.5195-9.0625L23.5059-9.12109C23.7598-9.13086 23.8379-9.11133 24.0332-8.91602L24.6094-8.33984L22.168-5.89844L21.5918-6.47461C21.3965-6.66992 21.3672-6.74805 21.377-7.01172L21.4453-7.98828L19.9512-9.47266L18.4277-9.21875C18.1055-9.15039 17.959-9.17969 17.7148-9.41406L15.7129-11.416C15.459-11.6504 15.4297-11.8164 15.5859-12.1875L16.4648-14.2773C14.9023-15.7324 12.8711-16.3574 10.8398-15.7617C10.6836-15.7227 10.625-15.8496 10.752-15.957Z"/>
  </g>
  <text style="stroke:none;fill:black;font-family:sans-serif;font-size:13;font-weight:bold;" transform="matrix(1 0 0 1 1289 1953)">Exporting</text>
  <text style="stroke:none;fill:black;font-family:sans-serif;font-size:13;" transform="matrix(1 0 0 1 1289 1971)">Symbols should be outlined when exporting to ensure the</text>
  <text style="stroke:none;fill:black;font-family:sans-serif;font-size:13;" transform="matrix(1 0 0 1 1289 1989)">design is preserved when submitting to Xcode.</text>
  <text id="template-version" style="stroke:none;fill:black;font-family:sans-serif;font-size:13;text-anchor:end;" transform="matrix(1 0 0 1 3036 1933)">Template v.4.0</text>
  <text style="stroke:none;fill:black;font-family:sans-serif;font-size:13;text-anchor:end;" transform="matrix(1 0 0 1 3036 1951)">Requires Xcode 14 or greater</text>
  <text id="descriptive-name" style="stroke:none;fill:black;font-family:sans-serif;font-size:13;text-anchor:end;" transform="matrix(1 0 0 1 3036 1969)">Generated from npu</text>
  <text style="stroke:none;fill:black;font-family:sans-serif;font-size:13;text-anchor:end;" transform="matrix(1 0 0 1 3036 1987)">Typeset at 100 points</text>
  <text style="stroke:none;fill:black;font-family:sans-serif;font-size:13;" transform="matrix(1 0 0 1 263 726)">Small</text>
  <text style="stroke:none;fill:black;font-family:sans-serif;font-size:13;" transform="matrix(1 0 0 1 263 1156)">Medium</text>
  <text style="stroke:none;fill:black;font-family:sans-serif;font-size:13;" transform="matrix(1 0 0 1 263 1586)">Large</text>
 </g>
 <g id="Guides">
  <g id="H-reference" style="fill:#27AAE1;stroke:none;" transform="matrix(1 0 0 1 339 696)">
   <path d="M0.993654 0L3.63775 0L29.3281-67.1323L30.0303-67.1323L30.0303-70.459L28.1226-70.459ZM11.6885-24.4799L46.9815-24.4799L46.2315-26.7285L12.4385-26.7285ZM55.1196 0L57.7637 0L30.6382-70.459L29.4326-70.459L29.4326-67.1323Z"/>
  </g>
  <line id="Baseline-S" style="fill:none;stroke:#27AAE1;opacity:1;stroke-width:0.5;" x1="263" x2="3036" y1="696" y2="696"/>
  <line id="Capline-S" style="fill:none;stroke:#27AAE1;opacity:1;stroke-width:0.5;" x1="263" x2="3036" y1="625.541" y2="625.541"/>
  <g id="H-reference" style="fill:#27AAE1;stroke:none;" transform="matrix(1 0 0 1 339 1126)">
   <path d="M0.993654 0L3.63775 0L29.3281-67.1323L30.0303-67.1323L30.0303-70.459L28.1226-70.459ZM11.6885-24.4799L46.9815-24.4799L46.2315-26.7285L12.4385-26.7285ZM55.1196 0L57.7637 0L30.6382-70.459L29.4326-70.459L29.4326-67.1323Z"/>
  </g>
  <line id="Baseline-M" style="fill:none;stroke:#27AAE1;opacity:1;stroke-width:0.5;" x1="263" x2="3036" y1="1126" y2="1126"/>
  <line id="Capline-M" style="fill:none;stroke:#27AAE1;opacity:1;stroke-width:0.5;" x1="263" x2="3036" y1="1055.54" y2="1055.54"/>
  <g id="H-reference" style="fill:#27AAE1;stroke:none;" transform="matrix(1 0 0 1 339 1556)">
   <path d="M0.993654 0L3.63775 0L29.3281-67.1323L30.0303-67.1323L30.0303-70.459L28.1226-70.459ZM11.6885-24.4799L46.9815-24.4799L46.2315-26.7285L12.4385-26.7285ZM55.1196 0L57.7637 0L30.6382-70.459L29.4326-70.459L29.4326-67.1323Z"/>
  </g>
  <line id="Baseline-L" style="fill:none;stroke:#27AAE1;opacity:1;stroke-width:0.5;" x1="263" x2="3036" y1="1556" y2="1556"/>
  <line id="Capline-L" style="fill:none;stroke:#27AAE1;opacity:1;stroke-width:0.5;" x1="263" x2="3036" y1="1485.54" y2="1485.54"/>
  <line id="left-margin-Ultralight-S" style="fill:none;stroke:#00AEEF;stroke-width:0.5;opacity:1.0;" x1="514.872" x2="514.872" y1="600.785" y2="720.121"/>
  <line id="right-margin-Ultralight-S" style="fill:none;stroke:#00AEEF;stroke-width:0.5;opacity:1.0;" x1="604.55" x2="604.55" y1="600.785" y2="720.121"/>
  <line id="left-margin-Regular-S" style="fill:none;stroke:#00AEEF;stroke-width:0.5;opacity:1.0;" x1="1400.92" x2="1400.92" y1="600.785" y2="720.121"/>
  <line id="right-margin-Regular-S" style="fill:none;stroke:#00AEEF;stroke-width:0.5;opacity:1.0;" x1="1498.77" x2="1498.77" y1="600.785" y2="720.121"/>
  <line id="left-margin-Black-S" style="fill:none;stroke:#00AEEF;stroke-width:0.5;opacity:1.0;" x1="2882.81" x2="2882.81" y1="600.785" y2="720.121"/>
  <line id="right-margin-Black-S" style="fill:none;stroke:#00AEEF;stroke-width:0.5;opacity:1.0;" x1="2983.99" x2="2983.99" y1="600.785" y2="720.121"/>
 </g>
 <g id="Symbols">
  <g id="Black-S" transform="matrix(1 0 0 1 2882.81 696)">
   <path class="monochrome-0 SFSymbolsPreview000000" d="M21.7285-1.95312L79.4434-1.95312C82.0801-1.95312 83.8379-3.71094 83.8379-6.34766L83.8379-64.0625C83.8379-66.6992 82.0801-68.457 79.4434-68.457L21.7285-68.457C19.0918-68.457 17.334-66.6992 17.334-64.0625L17.334-6.34766C17.334-3.71094 19.0918-1.95312 21.7285-1.95312ZM32.4707-13.8444C30.9174-13.8444 29.2247-15.2946 29.2247-17.0898L29.2258-53.3203C29.2259-54.9946 30.7964-56.5644 32.4707-56.5644L68.7012-56.5644C70.2545-56.5644 71.9452-54.9946 71.9452-53.3203L71.9453-17.0898C71.9453-15.2946 70.2545-13.8444 68.7012-13.8444ZM42.8757-43.3025C42.8757-42.1063 43.6732-41.261 44.7737-41.261C45.8582-41.261 46.6238-42.0266 46.6716-43.1271C46.7514-45.1207 48.1549-46.4924 50.1167-46.4924C51.265-46.4924 52.3336-45.8863 52.7642-44.9932C53.0354-44.4828 53.5139-44.3711 54.0721-44.4987C54.3911-44.5784 54.7739-44.6104 55.1247-44.6104C57.1822-44.5944 58.8249-42.9835 58.8249-40.942C58.8249-35.5512 50.7387-35.5671 50.7387-29.2991C50.7387-26.0295 53.0992-23.8445 56.6559-23.8445C56.6879-23.8445 56.7356-23.8445 56.7675-23.8445C57.3895-21.3404 59.1918-19.6179 61.3768-19.6179C64.6942-19.6179 67.0868-22.8237 67.0868-27.8796C67.0868-30.2561 66.9271-31.5958 66.7517-32.9515L62.9718-31.9307C63.1152-30.6548 63.2749-29.5224 63.2749-27.9275C63.2749-24.5781 62.27-23.4457 61.3768-23.4457C60.5794-23.4457 59.9414-24.7057 59.9414-26.4282C59.9414-26.9705 59.5267-27.3533 58.9685-27.3533C58.8728-27.3533 58.7771-27.3533 58.1551-27.3533C56.0976-27.3533 54.8855-28.2305 54.8855-29.5543C54.8855-32.9834 62.6528-32.9993 62.6528-40.942C62.6528-45.1527 59.4789-48.4382 55.4597-48.4382C55.3161-48.4382 55.1407-48.4222 54.9334-48.4063C53.6893-49.6025 51.9349-50.3042 50.1326-50.3042C46.0656-50.3042 42.8757-47.4334 42.8757-43.3025ZM32.3492-35.4077C32.3492-30.1763 35.9857-26.6356 41.3446-26.6356C46.6397-26.6356 50.2283-29.8573 50.2283-34.6102C50.2283-36.5879 49.5585-38.2307 48.2825-39.2993C47.5807-39.8894 47.0863-40.0967 46.4164-40.0967C45.3479-40.0967 44.5504-39.363 44.5504-38.3583C44.5504-37.4173 44.7737-37.3215 45.922-36.237C46.2729-35.918 46.4483-35.3917 46.4483-34.658C46.4483-32.1221 44.4706-30.4474 41.3924-30.4474C38.2345-30.4474 36.177-32.4092 36.177-35.4236C36.177-37.4013 37.2935-39.1238 39.1117-39.9213L37.118-43.2068C34.1515-41.7076 32.3492-38.7091 32.3492-35.4077ZM22.9492-43.8965L22.9492-52.9785L14.3066-52.9785C11.8164-52.9785 9.76562-50.9277 9.76562-48.4375C9.76562-45.9473 11.8164-43.8965 14.3066-43.8965ZM22.9492-30.7129L22.9492-39.7949L14.3066-39.7949C11.8164-39.7949 9.76562-37.7441 9.76562-35.2539C9.76562-32.7637 11.8164-30.7129 14.3066-30.7129ZM22.9492-17.5293L22.9492-26.6113L14.3066-26.6113C11.8164-26.6113 9.76562-24.5605 9.76562-22.0703C9.76562-19.5801 11.8164-17.5293 14.3066-17.5293ZM59.2285-62.8418L68.3105-62.8418L68.3105-71.4844C68.3105-73.9746 66.2598-76.0254 63.7695-76.0254C61.2793-76.0254 59.2285-73.9746 59.2285-71.4844ZM78.2227-39.7949L78.2227-30.7129L86.8652-30.7129C89.3555-30.7129 91.4062-32.7637 91.4062-35.2539C91.4062-37.7441 89.3555-39.7949 86.8652-39.7949ZM68.3105-7.66602L59.2285-7.66602L59.2285 0.976562C59.2285 3.4668 61.2793 5.51758 63.7695 5.51758C66.2598 5.51758 68.3105 3.4668 68.3105 0.976562ZM41.9434-7.66602L32.8613-7.66602L32.8613 0.976562C32.8613 3.4668 34.9121 5.51758 37.4023 5.51758C39.8926 5.51758 41.9434 3.4668 41.9434 0.976562ZM32.8613-62.8418L41.9434-62.8418L41.9434-71.4844C41.9434-73.9746 39.8926-76.0254 37.4023-76.0254C34.9121-76.0254 32.8613-73.9746 32.8613-71.4844ZM78.2227-26.6113L78.2227-17.5293L86.8652-17.5293C89.3555-17.5293 91.4062-19.5801 91.4062-22.0703C91.4062-24.5605 89.3555-26.6113 86.8652-26.6113ZM78.2227-52.9785L78.2227-43.8965L86.8652-43.8965C89.3555-43.8965 91.4062-45.9473 91.4062-48.4375C91.4062-50.9277 89.3555-52.9785 86.8652-52.9785ZM55.127-7.66602L46.0449-7.66602L46.0449 0.976562C46.0449 3.4668 48.0957 5.51758 50.5859 5.51758C53.0762 5.51758 55.127 3.4668 55.127 0.976562ZM46.0449-62.8418L55.127-62.8418L55.127-71.4844C55.127-73.9746 53.0762-76.0254 50.5859-76.0254C48.0957-76.0254 46.0449-73.9746 46.0449-71.4844ZM58.4581-30.0806C58.4581-29.0439 59.2556-28.2464 60.3242-28.1667C65.3004-27.7839 68.6975-30.7824 68.6975-35.5512C68.6975-39.5704 65.6512-42.6646 61.2492-43.0314L60.5794-39.076C63.1472-39.4747 64.8696-38.0074 64.8696-35.5512C64.8696-33.111 63.1632-31.7074 60.4358-31.9786C59.3672-32.0743 58.4581-31.1811 58.4581-30.0806ZM35.6986-42.6327C35.6986-39.1876 38.1388-36.8431 41.6795-36.8431C42.7322-36.8431 43.5934-37.7043 43.5934-38.757C43.5934-39.8096 42.7322-40.6709 41.6795-40.6709C40.3398-40.6709 39.5264-41.4205 39.5264-42.6327C39.5264-43.9086 40.595-44.8017 42.1261-44.8017C43.2107-44.8017 44.2473-44.3552 45.1405-43.5099L47.4053-46.6359C45.9061-47.9118 44.0081-48.6296 42.1421-48.6296C38.4737-48.6296 35.6986-46.0618 35.6986-42.6327ZM52.5569-29.5702C51.7595-29.1396 50.7865-28.8844 49.8296-28.8844C48.8567-28.8844 47.8997-29.1555 47.182-29.7776L43.1469-27.0662C44.7577-25.8062 47.0066-25.0725 49.383-25.0725C50.9141-25.0725 52.4612-25.3596 53.8966-25.886ZM46.7992-37.5927L48.1071-33.8765C52.0306-34.4188 54.2794-36.7314 54.1199-40.4954C54.0721-41.5481 53.163-42.4094 52.1103-42.4094C51.0577-42.4094 50.2124-41.5481 50.2921-40.4954C50.4516-38.438 49.3511-37.7203 46.7992-37.5927Z"/>
  </g>
  <g id="Regular-S" transform="matrix(1 0 0 1 1400.92 696)">
   <path class="monochrome-0 SFSymbolsPreview000000" d="M20.2148-3.125L77.7344-3.125C79.7363-3.125 81.0547-4.44336 81.0547-6.44531L81.0547-63.9648C81.0547-65.9668 79.7363-67.2852 77.7344-67.2852L20.2148-67.2852C18.2129-67.2852 16.8945-65.9668 16.8945-63.9648L16.8945-6.44531C16.8945-4.44336 18.2129-3.125 20.2148-3.125ZM25.1465-10.1562C24.2188-10.1562 23.9258-10.4492 23.9258-11.377L23.9258-59.0332C23.9258-59.9609 24.2188-60.2539 25.1465-60.2539L72.8516-60.2539C73.7305-60.2539 74.0234-59.9609 74.0234-59.0332L74.0234-11.377C74.0234-10.4492 73.7305-10.1562 72.8516-10.1562ZM40.8815-45.2043C40.8616-44.25 41.4779-43.6536 42.3129-43.6536C43.0883-43.6536 43.6847-44.1506 43.7245-45.0651C43.8438-47.9678 45.9313-50.1348 48.9334-50.1348C50.7823-50.1348 52.3728-49.1209 53.009-47.7689C53.1283-47.5503 53.3073-47.5304 53.6452-47.6099C54.1224-47.7292 54.6592-47.7889 55.1959-47.7889C57.9197-47.769 60.6832-45.6814 60.6832-42.3215C60.6832-34.7666 50.2455-36.0192 50.2455-28.6631C50.2455-25.1044 53.1084-22.8578 56.687-22.8578C57.0847-22.8578 57.5022-22.8777 57.8998-22.8976C58.2974-20.313 60.0072-17.6092 62.8502-17.6092C66.9854-17.6092 68.9736-22.5596 68.9736-26.9931C68.9736-29.2397 68.8543-30.7109 68.6951-32.0429L65.8324-31.2874C65.9915-29.9753 66.1108-28.7029 66.1108-27.0527C66.1108-23.5139 64.6197-20.4721 62.8502-20.4721C60.8621-20.4721 60.1464-23.1958 60.1464-25.0845C60.1464-25.2436 60.0668-25.343 59.8481-25.343C59.371-25.343 58.8939-25.343 58.4565-25.343C55.2159-25.343 53.1084-26.2376 53.1084-28.7228C53.1084-34.4883 63.546-32.878 63.546-42.3215C63.546-47.3117 59.7488-50.6517 55.5936-50.6517C55.3351-50.6517 54.9574-50.612 54.5597-50.5324C53.2277-52.0235 51.1799-52.9778 48.9533-52.9778C44.3607-52.9778 41.0803-49.7571 40.8815-45.2043ZM27.9189-36.4565C27.9189-30.5121 31.9946-26.5557 38.0981-26.5557C44.1221-26.5557 48.1381-30.1145 48.1381-35.4625C48.1381-37.7091 47.3627-39.4586 46.0506-40.572C45.3945-41.1286 44.9969-41.3076 44.3806-41.3076C43.5456-41.3076 43.0088-40.8105 43.0088-40.075C43.0088-39.1803 43.5257-38.9616 44.3607-38.1862C44.977-37.6097 45.315-36.6952 45.315-35.5221C45.315-31.864 42.4521-29.3988 38.1578-29.3988C33.7442-29.3988 30.7818-32.2418 30.7818-36.4765C30.7818-38.9218 32.0145-41.1485 34.0622-42.4408L32.591-44.8862C29.6685-43.077 27.9189-39.896 27.9189-36.4565ZM22.9492-44.1406L22.9492-51.2207L13.2812-51.2207C11.1816-51.2207 9.76562-49.8047 9.76562-47.6562C9.76562-45.5566 11.1816-44.1406 13.2812-44.1406ZM22.9492-31.6895L22.9492-38.7207L13.2812-38.7207C11.1816-38.7207 9.76562-37.3047 9.76562-35.2051C9.76562-33.1055 11.1816-31.6895 13.2812-31.6895ZM22.9492-19.2383L22.9492-26.2695L13.2812-26.2695C11.1816-26.2695 9.76562-24.8535 9.76562-22.7539C9.76562-20.6055 11.1816-19.2383 13.2812-19.2383ZM57.9102-61.2305L64.9902-61.2305L64.9902-70.8008C64.9902-72.9004 63.5742-74.3164 61.4746-74.3164C59.3262-74.3164 57.9102-72.9004 57.9102-70.8008ZM75-38.7695L75-31.7383L84.5703-31.7383C86.6699-31.7383 88.0859-33.1543 88.0859-35.2539C88.0859-37.3535 86.6699-38.7695 84.5703-38.7695ZM64.9902-9.17969L57.959-9.17969L57.959 0.390625C57.959 2.49023 59.375 3.90625 61.4746 3.90625C63.5742 3.90625 64.9902 2.49023 64.9902 0.390625ZM40.0391-9.17969L33.0078-9.17969L33.0078 0.390625C33.0078 2.49023 34.4238 3.90625 36.5234 3.90625C38.623 3.90625 40.0391 2.49023 40.0391 0.390625ZM33.0078-61.2305L40.0391-61.2305L40.0391-70.8008C40.0391-72.9004 38.623-74.3164 36.5234-74.3164C34.4238-74.3164 33.0078-72.9004 33.0078-70.8008ZM75-26.3184L75-19.2871L84.5703-19.2871C86.6699-19.2871 88.0859-20.6543 88.0859-22.8027C88.0859-24.9023 86.6699-26.3184 84.5703-26.3184ZM75-51.2207L75-44.1895L84.5703-44.1895C86.6699-44.1895 88.0859-45.6055 88.0859-47.7051C88.0859-49.8535 86.6699-51.2207 84.5703-51.2207ZM52.4902-9.17969L45.459-9.17969L45.459 0.390625C45.459 2.49023 46.875 3.90625 48.9746 3.90625C51.0742 3.90625 52.4902 2.49023 52.4902 0.390625ZM45.459-61.2305L52.4902-61.2305L52.4902-70.8008C52.4902-72.9004 51.0742-74.3164 48.9746-74.3164C46.875-74.3164 45.459-72.9004 45.459-70.8008ZM59.4505-29.4783C59.4505-28.683 60.0668-28.1064 60.882-28.0468C66.4883-27.6293 70.2261-30.9097 70.2261-36.2578C70.2261-40.5123 67.1841-43.8126 62.6315-44.4886L62.1743-41.6257C65.2757-41.6058 67.3633-39.4586 67.3633-36.2578C67.3633-32.699 64.7588-30.5519 60.882-30.9097C60.0668-30.9694 59.4505-30.2735 59.4505-29.4783ZM32.3525-44.7868C32.3525-41.069 34.937-38.564 38.8337-38.564C39.629-38.564 40.2652-39.2002 40.2652-39.9954C40.2652-40.7708 39.629-41.4269 38.8337-41.4269C36.6468-41.4269 35.2154-42.7788 35.2154-44.7868C35.2154-47.0135 37.1041-48.4251 39.3904-48.4251C40.5634-48.4251 41.8159-48.0672 42.9491-47.2322L44.639-49.5781C42.9889-50.7512 41.1399-51.2879 39.4103-51.2879C35.613-51.2879 32.3525-48.7233 32.3525-44.7868ZM51.4583-27.5896C50.504-27.2516 49.4304-27.0925 48.3767-27.0925C45.6331-27.0925 42.9094-28.186 41.9352-29.7566L39.5495-27.8281C41.2195-25.7406 44.3209-24.2097 48.0586-24.2097C49.4503-24.2097 50.9414-24.4086 52.4523-24.8857ZM46.4482-39.061L47.4025-36.3373C51.5179-37.1524 53.3271-39.737 53.3271-43.4945C53.3271-44.2699 52.6711-44.926 51.8957-44.926C51.1004-44.926 50.4642-44.2699 50.4642-43.4945C50.4642-40.9696 49.4105-39.4586 46.4482-39.061Z"/>
  </g>
  <g id="Ultralight-S" transform="matrix(1 0 0 1 514.872 696)">
   <path class="monochrome-0 SFSymbolsPreview000000" d="M18.7617-6.39451L72.7847-6.39451C73.8785-6.39451 74.5611-7.03172 74.5611-8.17088L74.5611-62.1485C74.5611-63.2876 73.8785-63.9248 72.7847-63.9248L18.7617-63.9248C17.668-63.9248 16.9854-63.2876 16.9854-62.1485L16.9854-8.17088C16.9854-7.03172 17.668-6.39451 18.7617-6.39451ZM19.9698-8.56691C19.4961-8.56691 19.2032-8.85988 19.2032-9.33351L19.2032-60.9858C19.2032-61.4595 19.4961-61.7524 19.9698-61.7524L71.5801-61.7524C72.0503-61.7524 72.3433-61.4595 72.3433-60.9858L72.3433-9.33351C72.3433-8.85988 72.0503-8.56691 71.5801-8.56691ZM36.5521-45.4667C36.5521-45.0765 36.8166-44.8355 37.1257-44.8355C37.4295-44.8355 37.694-45.0676 37.6975-45.4073C37.8491-49.4004 40.7831-52.2709 44.8318-52.2709C47.0164-52.2709 49.0605-51.2646 49.7983-48.9833C49.9028-48.682 50.0832-48.6802 50.3247-48.7813C51.2362-49.1677 52.153-49.3374 53.0464-49.314C56.953-49.2652 59.5947-46.4722 59.5947-42.3211C59.5947-34.4144 47.4384-34.2674 47.4384-26.4254C47.4384-23.0788 49.8541-21.0468 53.8367-21.0468C54.1775-21.0468 54.6609-21.072 55.1896-21.0973C55.4128-17.391 57.2326-14.8955 59.8579-14.8955C63.4203-14.8955 65.3588-19.5874 65.3588-26.4413C65.3588-27.6512 65.2778-28.8156 65.1931-29.9911L63.9989-29.5245C64.1305-28.2568 64.2116-27.345 64.2116-26.3997C64.2116-20.2125 62.6931-16.0192 59.8579-16.0192C57.6845-16.0192 56.2819-18.4225 56.2819-21.879C56.2819-22.1046 56.1574-22.2543 55.9266-22.2309C55.5318-22.2074 54.2444-22.1604 53.9236-22.1604C50.7227-22.1604 48.5857-23.7668 48.5857-26.4307C48.5857-33.2622 60.742-33.4713 60.742-42.3211C60.742-47.2045 57.6325-50.4612 53.0818-50.4612C52.3776-50.4847 51.4514-50.3402 50.6174-50.0513C49.5124-52.2745 47.2632-53.4164 44.8336-53.4164C40.1735-53.4164 36.8047-50.1937 36.5521-45.4667ZM23.3256-35.7392C23.3256-30.0193 27.235-26.2615 33.1805-26.2615C38.9309-26.2615 42.835-29.5846 42.835-34.5702C42.835-36.5787 41.9908-38.6135 40.7937-39.6991C40.5944-39.8426 40.465-39.9055 40.2458-39.9055C39.9131-39.9055 39.6775-39.6499 39.6775-39.3495C39.6775-39.129 39.7704-38.9921 39.9621-38.8057C41.0975-37.6739 41.7148-36.1363 41.7148-34.5756C41.7148-30.2805 38.289-27.3834 33.1857-27.3834C27.9074-27.3834 24.4728-30.7134 24.4728-35.7644C24.4728-38.5658 25.9449-41.5826 28.1706-43.2713L27.8988-44.4049C25.149-42.6232 23.3256-39.0987 23.3256-35.7392ZM18.2266-47.7734L18.2266-49.9492L10.8745-49.9492C10.2734-49.9492 9.76562-49.4868 9.76562-48.8823C9.76562-48.2358 10.2734-47.7734 10.8745-47.7734ZM18.2266-34.1416L18.2266-36.3594L10.8745-36.3594C10.2734-36.3594 9.76562-35.8516 9.76562-35.2505C9.76562-34.6494 10.2734-34.1416 10.8745-34.1416ZM18.2266-20.5552L18.2266-22.7276L10.8745-22.7276C10.2734-22.7276 9.76562-22.2652 9.76562-21.6187C9.76562-21.0142 10.2734-20.5552 10.8745-20.5552ZM58.2734-62.729L60.4947-62.729L60.4947-68.2124C60.4947-68.8135 59.9868-69.3213 59.3858-69.3213C58.7813-69.3213 58.2734-68.8135 58.2734-68.2124ZM73.3198-36.3628L73.3198-34.145L78.8033-34.145C79.4498-34.145 79.9122-34.6528 79.9122-35.2539C79.9122-35.855 79.4498-36.3628 78.8033-36.3628ZM60.9488-7.59034L58.731-7.59034L58.731-2.10691C58.731-1.50583 59.2388-0.998008 59.8399-0.998008C60.4864-0.998008 60.9488-1.50583 60.9488-2.10691ZM33.273-7.59034L31.0552-7.59034L31.0552-2.10691C31.0552-1.50583 31.563-0.998008 32.1641-0.998008C32.7652-0.998008 33.273-1.50583 33.273-2.10691ZM31.0552-62.729L33.273-62.729L33.273-68.2124C33.273-68.8135 32.7652-69.3213 32.1641-69.3213C31.563-69.3213 31.0552-68.8135 31.0552-68.2124ZM73.3198-22.731L73.3198-20.5586L78.8033-20.5586C79.4498-20.5586 79.9122-21.0176 79.9122-21.6221C79.9122-22.2686 79.4498-22.731 78.8033-22.731ZM73.3198-49.9492L73.3198-47.7768L78.8033-47.7768C79.4498-47.7768 79.9122-48.2392 79.9122-48.8857C79.9122-49.4902 79.4498-49.9492 78.8033-49.9492ZM46.8594-7.59034L44.687-7.59034L44.687-2.10691C44.687-1.50583 45.1494-0.998008 45.7505-0.998008C46.397-0.998008 46.8594-1.50583 46.8594-2.10691ZM44.687-62.729L46.8594-62.729L46.8594-68.2124C46.8594-68.8135 46.397-69.3213 45.7505-69.3213C45.1494-69.3213 44.687-68.8135 44.687-68.2124ZM58.4985-28.471C58.4985-28.1654 58.7648-27.9027 59.0721-27.9209C64.4096-27.8837 67.9601-31.1117 67.9601-35.9564C67.9601-40.5629 64.7064-43.8161 59.862-44.1111L59.8449-42.9169C64.02-42.7742 66.813-39.9994 66.813-35.9564C66.813-31.8111 63.7156-29.0363 59.0722-29.0446C58.7649-29.0498 58.4986-28.8001 58.4986-28.471ZM27.3608-44.8424C27.3608-41.7399 29.4933-38.8158 33.8096-38.8158C34.0918-38.8158 34.3832-39.1073 34.3832-39.3894C34.3832-39.6698 34.0918-39.963 33.8096-39.963C30.2326-39.963 28.4845-42.3383 28.4845-44.8424C28.4845-47.5302 30.5317-50.2866 34.4463-50.2866C35.7486-50.2866 37.0815-49.9494 38.3098-49.2879L38.9769-50.2482C37.5382-51.0572 36.0113-51.4339 34.4716-51.4339C29.8118-51.4339 27.3608-48.1286 27.3608-44.8424ZM48.204-25.1085C47.25-24.8435 45.8626-24.6649 44.7589-24.6649C42.0719-24.6649 38.9874-25.6078 37.4679-27.6971L36.5041-26.9384C38.4143-24.6387 41.415-23.516 44.7306-23.516C45.7704-23.516 47.2654-23.698 48.4803-23.9754ZM41.933-36.4171L42.3467-35.3762C46.2362-36.1534 48.2293-38.5678 48.1823-42.5429C48.1823-42.8467 47.936-43.1165 47.6087-43.1165C47.303-43.1165 47.0351-42.8467 47.0351-42.5429C47.0351-39.0533 45.438-37.0867 41.933-36.4171Z"/>
  </g>
 </g>
</svg>
